<svg version="1.1" viewBox="0.0 0.0 100.0 80.0" fill="none" stroke="none" stroke-linecap="square" stroke-miterlimit="10" xmlns:xlink="http://www.w3.org/1999/xlink" xmlns="http://www.w3.org/2000/svg"><clipPath id="g244418a63a9_0_94.0"><path d="m0 0l100.0 0l0 80.0l-100.0 0l0 -80.0z" clip-rule="nonzero"/></clipPath><g clip-path="url(#g244418a63a9_0_94.0)"><path fill="#000000" fill-opacity="0.0" d="m0 0l100.0 0l0 80.0l-100.0 0z" fill-rule="evenodd"/><defs><radialGradient id="g244418a63a9_0_94.1" gradientUnits="userSpaceOnUse" gradientTransform="matrix(7.849409204555735 0.0 0.0 7.849409204555735 0.0 0.0)" spreadMethod="pad" cx="6.33981210951221" cy="5.09692805829613" fx="6.33981210951221" fy="5.09692805829613" r="7.849409103393555"><stop offset="0.0" stop-color="#9eafb8"/><stop offset="1.0" stop-color="#616d73"/></radialGradient></defs><path fill="url(#g244418a63a9_0_94.1)" d="m1.3385826 14.611802l0 0c0 -7.0131416 5.685275 -12.698416 12.698417 -12.698416l71.45356 0c3.3678284 0 6.5977173 1.3378651 8.979134 3.7192802c2.3814163 2.381415 3.719284 5.6113067 3.719284 8.9791355l0 50.792145c0 7.013138 -5.68528 12.698418 -12.698418 12.698418l-71.45356 0l0 0c-7.013142 0 -12.698417 -5.68528 -12.698417 -12.698418z" fill-rule="evenodd"/><path stroke="#595959" stroke-width="1.0" stroke-linejoin="round" stroke-linecap="butt" d="m1.3385826 14.611802l0 0c0 -7.0131416 5.685275 -12.698416 12.698417 -12.698416l71.45356 0c3.3678284 0 6.5977173 1.3378651 8.979134 3.7192802c2.3814163 2.381415 3.719284 5.6113067 3.719284 8.9791355l0 50.792145c0 7.013138 -5.68528 12.698418 -12.698418 12.698418l-71.45356 0l0 0c-7.013142 0 -12.698417 -5.68528 -12.698417 -12.698418z" fill-rule="evenodd"/><g filter="url(#shadowFilter-g244418a63a9_0_94.2)"><use xlink:href="#g244418a63a9_0_94.2" transform="matrix(1.0 0.0 0.0 1.0 1.846984514435696 2.3640322834645753)"/></g><defs><filter id="shadowFilter-g244418a63a9_0_94.2" filterUnits="userSpaceOnUse"><feGaussianBlur in="SourceAlpha" stdDeviation="3.0" result="blur"/><feComponentTransfer in="blur" color-interpolation-filters="sRGB"><feFuncR type="linear" slope="0" intercept="0.0"/><feFuncG type="linear" slope="0" intercept="0.0"/><feFuncB type="linear" slope="0" intercept="0.0"/><feFuncA type="linear" slope="1.0" intercept="0"/></feComponentTransfer></filter></defs><g id="g244418a63a9_0_94.2"><path fill="#000000" fill-opacity="0.0" d="m22.38845 -6.1233597l67.93701 0l0 96.944885l-67.93701 0z" fill-rule="evenodd"/><path fill="#000000" d="m34.0447 41.722893q0 -8.125 1.671875 -13.078125q1.671875 -4.953125 4.96875 -7.640625q3.296875 -2.6875 8.296875 -2.6875q3.6875 0 6.46875 1.484375q2.78125 1.484375 4.59375 4.28125q1.8125 2.796875 2.84375 6.8125q1.03125 4.015625 1.03125 10.828125q0 8.0625 -1.65625 13.015625q-1.65625 4.953125 -4.953125 7.65625q-3.296875 2.703125 -8.328125 2.703125q-6.625 0 -10.40625 -4.75q-4.53125 -5.71875 -4.53125 -18.625zm5.78125 0q0 11.28125 2.640625 15.015625q2.640625 3.734375 6.515625 3.734375q3.875 0 6.515625 -3.75q2.640625 -3.75 2.640625 -15.0q0 -11.3125 -2.640625 -15.03125q-2.640625 -3.71875 -6.578125 -3.71875q-3.875 0 -6.1875 3.28125q-2.90625 4.1875 -2.90625 15.46875z" fill-rule="nonzero"/></g></g></svg>