<svg version="1.1" viewBox="0.0 0.0 100.0 80.0" fill="none" stroke="none" stroke-linecap="square" stroke-miterlimit="10" xmlns:xlink="http://www.w3.org/1999/xlink" xmlns="http://www.w3.org/2000/svg"><clipPath id="g244418a63a9_0_64.0"><path d="m0 0l100.0 0l0 80.0l-100.0 0l0 -80.0z" clip-rule="nonzero"/></clipPath><g clip-path="url(#g244418a63a9_0_64.0)"><path fill="#000000" fill-opacity="0.0" d="m0 0l100.0 0l0 80.0l-100.0 0z" fill-rule="evenodd"/><defs><radialGradient id="g244418a63a9_0_64.1" gradientUnits="userSpaceOnUse" gradientTransform="matrix(7.849409204555735 0.0 0.0 7.849409204555735 0.0 0.0)" spreadMethod="pad" cx="6.33981210951221" cy="5.09692805829613" fx="6.33981210951221" fy="5.09692805829613" r="7.849409103393555"><stop offset="0.0" stop-color="#9eafb8"/><stop offset="1.0" stop-color="#616d73"/></radialGradient></defs><path fill="url(#g244418a63a9_0_64.1)" d="m1.3385826 14.611802l0 0c0 -7.0131416 5.685275 -12.698416 12.698417 -12.698416l71.45356 0c3.3678284 0 6.5977173 1.3378651 8.979134 3.7192802c2.3814163 2.381415 3.719284 5.6113067 3.719284 8.9791355l0 50.792145c0 7.013138 -5.68528 12.698418 -12.698418 12.698418l-71.45356 0l0 0c-7.013142 0 -12.698417 -5.68528 -12.698417 -12.698418z" fill-rule="evenodd"/><path stroke="#595959" stroke-width="1.0" stroke-linejoin="round" stroke-linecap="butt" d="m1.3385826 14.611802l0 0c0 -7.0131416 5.685275 -12.698416 12.698417 -12.698416l71.45356 0c3.3678284 0 6.5977173 1.3378651 8.979134 3.7192802c2.3814163 2.381415 3.719284 5.6113067 3.719284 8.9791355l0 50.792145c0 7.013138 -5.68528 12.698418 -12.698418 12.698418l-71.45356 0l0 0c-7.013142 0 -12.698417 -5.68528 -12.698417 -12.698418z" fill-rule="evenodd"/><g filter="url(#shadowFilter-g244418a63a9_0_64.2)"><use xlink:href="#g244418a63a9_0_64.2" transform="matrix(1.0 0.0 0.0 1.0 1.846984514435696 2.3640322834645753)"/></g><defs><filter id="shadowFilter-g244418a63a9_0_64.2" filterUnits="userSpaceOnUse"><feGaussianBlur in="SourceAlpha" stdDeviation="3.0" result="blur"/><feComponentTransfer in="blur" color-interpolation-filters="sRGB"><feFuncR type="linear" slope="0" intercept="0.0"/><feFuncG type="linear" slope="0" intercept="0.0"/><feFuncB type="linear" slope="0" intercept="0.0"/><feFuncA type="linear" slope="1.0" intercept="0"/></feComponentTransfer></filter></defs><g id="g244418a63a9_0_64.2"><path fill="#000000" fill-opacity="0.0" d="m22.38845 -6.1233597l67.93701 0l0 96.944885l-67.93701 0z" fill-rule="evenodd"/><path fill="#000000" d="m63.2322 29.722893l-5.59375 0.4375q-0.75 -3.3125 -2.125 -4.8125q-2.28125 -2.40625 -5.625 -2.40625q-2.6875 0 -4.71875 1.5q-2.65625 1.9375 -4.1875 5.65625q-1.53125 3.71875 -1.59375 10.59375q2.03125 -3.09375 4.96875 -4.59375q2.9375 -1.5 6.15625 -1.5q5.625 0 9.578125 4.140625q3.953125 4.140625 3.953125 10.703125q0 4.3125 -1.859375 8.015625q-1.859375 3.703125 -5.109375 5.671875q-3.25 1.96875 -7.375 1.96875q-7.03125 0 -11.46875 -5.171875q-4.4375 -5.171875 -4.4375 -17.046875q0 -13.28125 4.90625 -19.3125q4.28125 -5.25 11.53125 -5.25q5.40625 0 8.859375 3.03125q3.453125 3.03125 4.140625 8.375zm-22.96875 19.75q0 2.90625 1.234375 5.5625q1.234375 2.65625 3.453125 4.046875q2.21875 1.390625 4.65625 1.390625q3.5625 0 6.125 -2.875q2.5625 -2.875 2.5625 -7.8125q0 -4.75 -2.53125 -7.484375q-2.53125 -2.734375 -6.375 -2.734375q-3.8125 0 -6.46875 2.734375q-2.65625 2.734375 -2.65625 7.171875z" fill-rule="nonzero"/></g></g></svg>