<svg version="1.1" viewBox="0.0 0.0 100.0 80.0" fill="none" stroke="none" stroke-linecap="square" stroke-miterlimit="10" xmlns:xlink="http://www.w3.org/1999/xlink" xmlns="http://www.w3.org/2000/svg"><clipPath id="g244418a63a9_0_54.0"><path d="m0 0l100.0 0l0 80.0l-100.0 0l0 -80.0z" clip-rule="nonzero"/></clipPath><g clip-path="url(#g244418a63a9_0_54.0)"><path fill="#000000" fill-opacity="0.0" d="m0 0l100.0 0l0 80.0l-100.0 0z" fill-rule="evenodd"/><defs><radialGradient id="g244418a63a9_0_54.1" gradientUnits="userSpaceOnUse" gradientTransform="matrix(7.849409204555735 0.0 0.0 7.849409204555735 0.0 0.0)" spreadMethod="pad" cx="6.33981210951221" cy="5.09692805829613" fx="6.33981210951221" fy="5.09692805829613" r="7.849409103393555"><stop offset="0.0" stop-color="#9eafb8"/><stop offset="1.0" stop-color="#616d73"/></radialGradient></defs><path fill="url(#g244418a63a9_0_54.1)" d="m1.3385826 14.611802l0 0c0 -7.0131416 5.685275 -12.698416 12.698417 -12.698416l71.45356 0c3.3678284 0 6.5977173 1.3378651 8.979134 3.7192802c2.3814163 2.381415 3.719284 5.6113067 3.719284 8.9791355l0 50.792145c0 7.013138 -5.68528 12.698418 -12.698418 12.698418l-71.45356 0l0 0c-7.013142 0 -12.698417 -5.68528 -12.698417 -12.698418z" fill-rule="evenodd"/><path stroke="#595959" stroke-width="1.0" stroke-linejoin="round" stroke-linecap="butt" d="m1.3385826 14.611802l0 0c0 -7.0131416 5.685275 -12.698416 12.698417 -12.698416l71.45356 0c3.3678284 0 6.5977173 1.3378651 8.979134 3.7192802c2.3814163 2.381415 3.719284 5.6113067 3.719284 8.9791355l0 50.792145c0 7.013138 -5.68528 12.698418 -12.698418 12.698418l-71.45356 0l0 0c-7.013142 0 -12.698417 -5.68528 -12.698417 -12.698418z" fill-rule="evenodd"/><g filter="url(#shadowFilter-g244418a63a9_0_54.2)"><use xlink:href="#g244418a63a9_0_54.2" transform="matrix(1.0 0.0 0.0 1.0 1.846984514435696 2.3640322834645753)"/></g><defs><filter id="shadowFilter-g244418a63a9_0_54.2" filterUnits="userSpaceOnUse"><feGaussianBlur in="SourceAlpha" stdDeviation="3.0" result="blur"/><feComponentTransfer in="blur" color-interpolation-filters="sRGB"><feFuncR type="linear" slope="0" intercept="0.0"/><feFuncG type="linear" slope="0" intercept="0.0"/><feFuncB type="linear" slope="0" intercept="0.0"/><feFuncA type="linear" slope="1.0" intercept="0"/></feComponentTransfer></filter></defs><g id="g244418a63a9_0_54.2"><path fill="#000000" fill-opacity="0.0" d="m22.38845 -6.1233597l67.93701 0l0 96.944885l-67.93701 0z" fill-rule="evenodd"/><path fill="#000000" d="m42.70095 39.472893q-3.5 -1.28125 -5.1875 -3.65625q-1.6875 -2.375 -1.6875 -5.6875q0 -5.0 3.59375 -8.40625q3.59375 -3.40625 9.5625 -3.40625q6.0 0 9.65625 3.484375q3.65625 3.484375 3.65625 8.484375q0 3.1875 -1.671875 5.546875q-1.671875 2.359375 -5.078125 3.640625q4.21875 1.375 6.421875 4.4375q2.203125 3.0625 2.203125 7.3125q0 5.875 -4.15625 9.875q-4.15625 4.0 -10.9375 4.0q-6.78125 0 -10.9375 -4.015625q-4.15625 -4.015625 -4.15625 -10.015625q0 -4.46875 2.265625 -7.484375q2.265625 -3.015625 6.453125 -4.109375zm-1.125 -9.53125q0 3.25 2.09375 5.3125q2.09375 2.0625 5.4375 2.0625q3.25 0 5.328125 -2.046875q2.078125 -2.046875 2.078125 -5.015625q0 -3.09375 -2.140625 -5.203125q-2.140625 -2.109375 -5.328125 -2.109375q-3.21875 0 -5.34375 2.0625q-2.125 2.0625 -2.125 4.9375zm-1.8125 21.15625q0 2.40625 1.140625 4.65625q1.140625 2.25 3.390625 3.484375q2.25 1.234375 4.84375 1.234375q4.03125 0 6.65625 -2.59375q2.625 -2.59375 2.625 -6.59375q0 -4.0625 -2.703125 -6.71875q-2.703125 -2.65625 -6.765625 -2.65625q-3.96875 0 -6.578125 2.625q-2.609375 2.625 -2.609375 6.5625z" fill-rule="nonzero"/></g></g></svg>