<svg version="1.1" viewBox="0.0 0.0 100.0 80.0" fill="none" stroke="none" stroke-linecap="square" stroke-miterlimit="10" xmlns:xlink="http://www.w3.org/1999/xlink" xmlns="http://www.w3.org/2000/svg"><clipPath id="g244418a63a9_0_59.0"><path d="m0 0l100.0 0l0 80.0l-100.0 0l0 -80.0z" clip-rule="nonzero"/></clipPath><g clip-path="url(#g244418a63a9_0_59.0)"><path fill="#000000" fill-opacity="0.0" d="m0 0l100.0 0l0 80.0l-100.0 0z" fill-rule="evenodd"/><defs><radialGradient id="g244418a63a9_0_59.1" gradientUnits="userSpaceOnUse" gradientTransform="matrix(7.849409204555735 0.0 0.0 7.849409204555735 0.0 0.0)" spreadMethod="pad" cx="6.33981210951221" cy="5.09692805829613" fx="6.33981210951221" fy="5.09692805829613" r="7.849409103393555"><stop offset="0.0" stop-color="#9eafb8"/><stop offset="1.0" stop-color="#616d73"/></radialGradient></defs><path fill="url(#g244418a63a9_0_59.1)" d="m1.3385826 14.611802l0 0c0 -7.0131416 5.685275 -12.698416 12.698417 -12.698416l71.45356 0c3.3678284 0 6.5977173 1.3378651 8.979134 3.7192802c2.3814163 2.381415 3.719284 5.6113067 3.719284 8.9791355l0 50.792145c0 7.013138 -5.68528 12.698418 -12.698418 12.698418l-71.45356 0l0 0c-7.013142 0 -12.698417 -5.68528 -12.698417 -12.698418z" fill-rule="evenodd"/><path stroke="#595959" stroke-width="1.0" stroke-linejoin="round" stroke-linecap="butt" d="m1.3385826 14.611802l0 0c0 -7.0131416 5.685275 -12.698416 12.698417 -12.698416l71.45356 0c3.3678284 0 6.5977173 1.3378651 8.979134 3.7192802c2.3814163 2.381415 3.719284 5.6113067 3.719284 8.9791355l0 50.792145c0 7.013138 -5.68528 12.698418 -12.698418 12.698418l-71.45356 0l0 0c-7.013142 0 -12.698417 -5.68528 -12.698417 -12.698418z" fill-rule="evenodd"/><g filter="url(#shadowFilter-g244418a63a9_0_59.2)"><use xlink:href="#g244418a63a9_0_59.2" transform="matrix(1.0 0.0 0.0 1.0 1.846984514435696 2.3640322834645753)"/></g><defs><filter id="shadowFilter-g244418a63a9_0_59.2" filterUnits="userSpaceOnUse"><feGaussianBlur in="SourceAlpha" stdDeviation="3.0" result="blur"/><feComponentTransfer in="blur" color-interpolation-filters="sRGB"><feFuncR type="linear" slope="0" intercept="0.0"/><feFuncG type="linear" slope="0" intercept="0.0"/><feFuncB type="linear" slope="0" intercept="0.0"/><feFuncA type="linear" slope="1.0" intercept="0"/></feComponentTransfer></filter></defs><g id="g244418a63a9_0_59.2"><path fill="#000000" fill-opacity="0.0" d="m22.38845 -6.1233597l67.93701 0l0 96.944885l-67.93701 0z" fill-rule="evenodd"/><path fill="#000000" d="m34.88845 53.722893l5.40625 -0.5q0.6875 3.8125 2.625 5.53125q1.9375 1.71875 4.96875 1.71875q2.59375 0 4.546875 -1.1875q1.953125 -1.1875 3.203125 -3.171875q1.25 -1.984375 2.09375 -5.359375q0.84375 -3.375 0.84375 -6.875q0 -0.375 -0.03125 -1.125q-1.6875 2.6875 -4.609375 4.359375q-2.921875 1.671875 -6.328125 1.671875q-5.6875 0 -9.625 -4.125q-3.9375 -4.125 -3.9375 -10.875q0 -6.96875 4.109375 -11.21875q4.109375 -4.25 10.296875 -4.25q4.46875 0 8.171875 2.40625q3.703125 2.40625 5.625 6.859375q1.921875 4.453125 1.921875 12.890625q0 8.78125 -1.90625 13.984375q-1.90625 5.203125 -5.671875 7.921875q-3.765625 2.71875 -8.828125 2.71875q-5.375 0 -8.78125 -2.984375q-3.40625 -2.984375 -4.09375 -8.390625zm23.03125 -20.21875q0 -4.84375 -2.578125 -7.6875q-2.578125 -2.84375 -6.203125 -2.84375q-3.75 0 -6.53125 3.0625q-2.78125 3.0625 -2.78125 7.9375q0 4.375 2.640625 7.109375q2.640625 2.734375 6.515625 2.734375q3.90625 0 6.421875 -2.734375q2.515625 -2.734375 2.515625 -7.578125z" fill-rule="nonzero"/></g></g></svg>