<svg version="1.1" viewBox="0.0 0.0 100.0 80.0" fill="none" stroke="none" stroke-linecap="square" stroke-miterlimit="10" xmlns:xlink="http://www.w3.org/1999/xlink" xmlns="http://www.w3.org/2000/svg"><clipPath id="g244418a63a9_0_114.0"><path d="m0 0l100.0 0l0 80.0l-100.0 0l0 -80.0z" clip-rule="nonzero"/></clipPath><g clip-path="url(#g244418a63a9_0_114.0)"><path fill="#000000" fill-opacity="0.0" d="m0 0l100.0 0l0 80.0l-100.0 0z" fill-rule="evenodd"/><defs><radialGradient id="g244418a63a9_0_114.1" gradientUnits="userSpaceOnUse" gradientTransform="matrix(7.849409204555735 0.0 0.0 7.849409204555735 0.0 0.0)" spreadMethod="pad" cx="6.33981210951221" cy="5.09692805829613" fx="6.33981210951221" fy="5.09692805829613" r="7.849409103393555"><stop offset="0.0" stop-color="#9eafb8"/><stop offset="1.0" stop-color="#2f045d"/></radialGradient></defs><path fill="url(#g244418a63a9_0_114.1)" d="m1.3385826 14.611802l0 0c0 -7.0131416 5.685275 -12.698416 12.698417 -12.698416l71.45356 0c3.3678284 0 6.5977173 1.3378651 8.979134 3.7192802c2.3814163 2.381415 3.719284 5.6113067 3.719284 8.9791355l0 50.792145c0 7.013138 -5.68528 12.698418 -12.698418 12.698418l-71.45356 0l0 0c-7.013142 0 -12.698417 -5.68528 -12.698417 -12.698418z" fill-rule="evenodd"/><path stroke="#595959" stroke-width="1.0" stroke-linejoin="round" stroke-linecap="butt" d="m1.3385826 14.611802l0 0c0 -7.0131416 5.685275 -12.698416 12.698417 -12.698416l71.45356 0c3.3678284 0 6.5977173 1.3378651 8.979134 3.7192802c2.3814163 2.381415 3.719284 5.6113067 3.719284 8.9791355l0 50.792145c0 7.013138 -5.68528 12.698418 -12.698418 12.698418l-71.45356 0l0 0c-7.013142 0 -12.698417 -5.68528 -12.698417 -12.698418z" fill-rule="evenodd"/><g filter="url(#shadowFilter-g244418a63a9_0_114.2)"><use xlink:href="#g244418a63a9_0_114.2" transform="matrix(1.0 0.0 0.0 1.0 1.846984514435696 2.3640322834645753)"/></g><defs><filter id="shadowFilter-g244418a63a9_0_114.2" filterUnits="userSpaceOnUse"><feGaussianBlur in="SourceAlpha" stdDeviation="3.0" result="blur"/><feComponentTransfer in="blur" color-interpolation-filters="sRGB"><feFuncR type="linear" slope="0" intercept="0.0"/><feFuncG type="linear" slope="0" intercept="0.0"/><feFuncB type="linear" slope="0" intercept="0.0"/><feFuncA type="linear" slope="1.0" intercept="0"/></feComponentTransfer></filter></defs><g id="g244418a63a9_0_114.2"><path fill="#000000" fill-opacity="0.0" d="m16.031496 -12.301837l67.93701 0l0 96.94488l-67.93701 0z" fill-rule="evenodd"/><path fill="#000000" d="m25.500246 58.138165l12.125002 -17.25l-11.218752 -15.9375l7.031252 0l5.09375 7.78125q1.4375 2.21875 2.3125 3.71875q1.375 -2.0625 2.53125 -3.65625l5.59375 -7.84375l6.71875 0l-11.46875 15.625l12.34375 17.5625l-6.90625 0l-6.8125 -10.3125l-1.8125 -2.78125l-8.71875 13.09375l-6.812502 0z" fill-rule="nonzero"/></g><g filter="url(#shadowFilter-g244418a63a9_0_114.3)"><use xlink:href="#g244418a63a9_0_114.3" transform="matrix(1.0 0.0 0.0 1.0 1.0 0.0)"/></g><defs><filter id="shadowFilter-g244418a63a9_0_114.3" filterUnits="userSpaceOnUse"><feGaussianBlur in="SourceAlpha" stdDeviation="2.0" result="blur"/><feComponentTransfer in="blur" color-interpolation-filters="sRGB"><feFuncR type="linear" slope="0" intercept="0.0"/><feFuncG type="linear" slope="0" intercept="0.0"/><feFuncB type="linear" slope="0" intercept="0.0"/><feFuncA type="linear" slope="1.0" intercept="0"/></feComponentTransfer></filter></defs><g id="g244418a63a9_0_114.3"><path fill="#000000" fill-opacity="0.0" d="m50.0 -3.6351707l96.0 0l0 46.866142l-96.0 0z" fill-rule="evenodd"/><path fill="#000000" d="m70.453125 24.234203l0 2.890625l-10.890625 0q0.171875 -1.640625 1.0625 -3.09375q0.890625 -1.46875 3.5 -3.890625q2.09375 -1.96875 2.578125 -2.65625q0.640625 -0.96875 0.640625 -1.906251q0 -1.046875 -0.5625 -1.59375q-0.5625 -0.5625 -1.546875 -0.5625q-0.96875 0 -1.546875 0.59375q-0.578125 0.578125 -0.65625 1.9375l-3.109375 -0.3125q0.28125 -2.5625 1.734375 -3.671875q1.46875 -1.125 3.65625 -1.125q2.40625 0 3.765625 1.296875q1.375 1.28125 1.375 3.21875q0 1.093751 -0.390625 2.093751q-0.390625 0.984375 -1.234375 2.0625q-0.5625 0.71875 -2.046875 2.078125q-1.46875 1.34375 -1.859375 1.78125q-0.390625 0.4375 -0.640625 0.859375l6.171875 0z" fill-rule="nonzero"/></g></g></svg>