<svg version="1.1" viewBox="0.0 0.0 100.0 80.0" fill="none" stroke="none" stroke-linecap="square" stroke-miterlimit="10" xmlns:xlink="http://www.w3.org/1999/xlink" xmlns="http://www.w3.org/2000/svg"><clipPath id="g245a432394a_0_55.0"><path d="m0 0l100.0 0l0 80.0l-100.0 0l0 -80.0z" clip-rule="nonzero"/></clipPath><g clip-path="url(#g245a432394a_0_55.0)"><path fill="#000000" fill-opacity="0.0" d="m0 0l100.0 0l0 80.0l-100.0 0z" fill-rule="evenodd"/><defs><radialGradient id="g245a432394a_0_55.1" gradientUnits="userSpaceOnUse" gradientTransform="matrix(7.849409204555735 0.0 0.0 7.849409204555735 0.0 0.0)" spreadMethod="pad" cx="6.33981210951221" cy="5.09692805829613" fx="6.33981210951221" fy="5.09692805829613" r="7.849409103393555"><stop offset="0.0" stop-color="#9eafb8"/><stop offset="1.0" stop-color="#2f045d"/></radialGradient></defs><path fill="url(#g245a432394a_0_55.1)" d="m1.3385826 14.611802l0 0c0 -7.0131416 5.685275 -12.698416 12.698417 -12.698416l71.45356 0c3.3678284 0 6.5977173 1.3378651 8.979134 3.7192802c2.3814163 2.381415 3.719284 5.6113067 3.719284 8.9791355l0 50.792145c0 7.013138 -5.68528 12.698418 -12.698418 12.698418l-71.45356 0l0 0c-7.013142 0 -12.698417 -5.68528 -12.698417 -12.698418z" fill-rule="evenodd"/><path stroke="#595959" stroke-width="1.0" stroke-linejoin="round" stroke-linecap="butt" d="m1.3385826 14.611802l0 0c0 -7.0131416 5.685275 -12.698416 12.698417 -12.698416l71.45356 0c3.3678284 0 6.5977173 1.3378651 8.979134 3.7192802c2.3814163 2.381415 3.719284 5.6113067 3.719284 8.9791355l0 50.792145c0 7.013138 -5.68528 12.698418 -12.698418 12.698418l-71.45356 0l0 0c-7.013142 0 -12.698417 -5.68528 -12.698417 -12.698418z" fill-rule="evenodd"/><g filter="url(#shadowFilter-g245a432394a_0_55.2)"><use xlink:href="#g245a432394a_0_55.2" transform="matrix(1.0 0.0 0.0 1.0 0.6257377952755909 3.9507532808398977)"/></g><defs><filter id="shadowFilter-g245a432394a_0_55.2" filterUnits="userSpaceOnUse"><feGaussianBlur in="SourceAlpha" stdDeviation="2.0" result="blur"/><feComponentTransfer in="blur" color-interpolation-filters="sRGB"><feFuncR type="linear" slope="0" intercept="0.0"/><feFuncG type="linear" slope="0" intercept="0.0"/><feFuncB type="linear" slope="0" intercept="0.0"/><feFuncA type="linear" slope="1.0" intercept="0"/></feComponentTransfer></filter></defs><g id="g245a432394a_0_55.2"><path fill="#000000" fill-opacity="0.0" d="m27.942257 64.115486l44.787403 -49.574802" fill-rule="evenodd"/><path stroke="#000000" stroke-width="4.0" stroke-linejoin="round" stroke-linecap="butt" d="m27.942257 64.115486l44.787403 -49.574802" fill-rule="evenodd"/></g><g filter="url(#shadowFilter-g245a432394a_0_55.3)"><use xlink:href="#g245a432394a_0_55.3" transform="matrix(1.0 0.0 0.0 1.0 2.623859055118111 1.4544288713910751)"/></g><defs><filter id="shadowFilter-g245a432394a_0_55.3" filterUnits="userSpaceOnUse"><feGaussianBlur in="SourceAlpha" stdDeviation="1.0" result="blur"/><feComponentTransfer in="blur" color-interpolation-filters="sRGB"><feFuncR type="linear" slope="0" intercept="0.0"/><feFuncG type="linear" slope="0" intercept="0.0"/><feFuncB type="linear" slope="0" intercept="0.0"/><feFuncA type="linear" slope="1.0" intercept="0"/></feComponentTransfer></filter></defs><g id="g245a432394a_0_55.3"><path fill="#000000" fill-opacity="0.0" d="m13.577428 0l31.590553 0l0 56.56693l-31.590553 0z" fill-rule="evenodd"/><path fill="#000000" d="m34.639927 38.44l-4.203125 0l0 -15.859375q-2.3125 2.15625 -5.4375 3.203125l0 -3.828125q1.65625 -0.53125 3.578125 -2.03125q1.9375 -1.515625 2.65625 -3.515625l3.40625 0l0 22.03125z" fill-rule="nonzero"/></g><g filter="url(#shadowFilter-g245a432394a_0_55.4)"><use xlink:href="#g245a432394a_0_55.4" transform="matrix(1.0 0.0 0.0 1.0 2.623859055118106 1.4544288713910751)"/></g><defs><filter id="shadowFilter-g245a432394a_0_55.4" filterUnits="userSpaceOnUse"><feGaussianBlur in="SourceAlpha" stdDeviation="1.0" result="blur"/><feComponentTransfer in="blur" color-interpolation-filters="sRGB"><feFuncR type="linear" slope="0" intercept="0.0"/><feFuncG type="linear" slope="0" intercept="0.0"/><feFuncB type="linear" slope="0" intercept="0.0"/><feFuncA type="linear" slope="1.0" intercept="0"/></feComponentTransfer></filter></defs><g id="g245a432394a_0_55.4"><path fill="#000000" fill-opacity="0.0" d="m48.41995 19.732283l37.417324 0l0 61.41732l-37.417324 0z" fill-rule="evenodd"/><path fill="#000000" d="m57.623074 62.012283l6.484371 -9.25l-6.218746 -8.71875l5.8125 0l3.1718712 4.9375l3.359375 -4.9375l5.578125 0l-6.09375 8.515625l6.65625 9.453125l-5.84375 0l-3.65625 -5.5625l-3.6874962 5.5625l-5.5625 0z" fill-rule="nonzero"/></g></g></svg>