<svg version="1.1" viewBox="0.0 0.0 100.0 80.0" fill="none" stroke="none" stroke-linecap="square" stroke-miterlimit="10" xmlns:xlink="http://www.w3.org/1999/xlink" xmlns="http://www.w3.org/2000/svg"><clipPath id="g244487e8d64_1_18.0"><path d="m0 0l100.0 0l0 80.0l-100.0 0l0 -80.0z" clip-rule="nonzero"/></clipPath><g clip-path="url(#g244487e8d64_1_18.0)"><path fill="#000000" fill-opacity="0.0" d="m0 0l100.0 0l0 80.0l-100.0 0z" fill-rule="evenodd"/><defs><radialGradient id="g244487e8d64_1_18.1" gradientUnits="userSpaceOnUse" gradientTransform="matrix(7.849409204555735 0.0 0.0 7.849409204555735 0.0 0.0)" spreadMethod="pad" cx="6.33981210951221" cy="5.09692805829613" fx="6.33981210951221" fy="5.09692805829613" r="7.849409103393555"><stop offset="0.0" stop-color="#f4cccc"/><stop offset="1.0" stop-color="#ff0000"/></radialGradient></defs><path fill="url(#g244487e8d64_1_18.1)" d="m1.3385826 14.611802l0 0c0 -7.0131416 5.685275 -12.698416 12.698417 -12.698416l71.45356 0c3.3678284 0 6.5977173 1.3378651 8.979134 3.7192802c2.3814163 2.381415 3.719284 5.6113067 3.719284 8.9791355l0 50.792145c0 7.013138 -5.68528 12.698418 -12.698418 12.698418l-71.45356 0l0 0c-7.013142 0 -12.698417 -5.68528 -12.698417 -12.698418z" fill-rule="evenodd"/><path stroke="#595959" stroke-width="1.0" stroke-linejoin="round" stroke-linecap="butt" d="m1.3385826 14.611802l0 0c0 -7.0131416 5.685275 -12.698416 12.698417 -12.698416l71.45356 0c3.3678284 0 6.5977173 1.3378651 8.979134 3.7192802c2.3814163 2.381415 3.719284 5.6113067 3.719284 8.9791355l0 50.792145c0 7.013138 -5.68528 12.698418 -12.698418 12.698418l-71.45356 0l0 0c-7.013142 0 -12.698417 -5.68528 -12.698417 -12.698418z" fill-rule="evenodd"/><g filter="url(#shadowFilter-g244487e8d64_1_18.2)"><use xlink:href="#g244487e8d64_1_18.2" transform="matrix(1.0 0.0 0.0 1.0 0.7814622047244102 1.8410097112860881)"/></g><defs><filter id="shadowFilter-g244487e8d64_1_18.2" filterUnits="userSpaceOnUse"><feGaussianBlur in="SourceAlpha" stdDeviation="2.0" result="blur"/><feComponentTransfer in="blur" color-interpolation-filters="sRGB"><feFuncR type="linear" slope="0" intercept="0.0"/><feFuncG type="linear" slope="0" intercept="0.0"/><feFuncB type="linear" slope="0" intercept="0.0"/><feFuncA type="linear" slope="1.0" intercept="0"/></feComponentTransfer></filter></defs><g id="g244487e8d64_1_18.2"><path fill="#000000" fill-opacity="0.0" d="m11.181103 8.488189l89.00787 0l0 63.02362l-89.00787 0z" fill-rule="evenodd"/><path fill="#000000" d="m21.743603 39.313812q0 -3.9375 1.1875 -6.609375q0.875 -1.96875 2.390625 -3.53125q1.515625 -1.5625 3.328125 -2.3125q2.40625 -1.015625 5.5625 -1.015625q5.6875 0 9.109375 3.53125q3.421875 3.53125 3.421875 9.828125q0 6.234375 -3.390625 9.765625q-3.390625 3.515625 -9.078125 3.515625q-5.75 0 -9.140625 -3.5q-3.390625 -3.515625 -3.390625 -9.671875zm5.359375 -0.171875q0 4.375 2.015625 6.640625q2.03125 2.25 5.140625 2.25q3.109375 0 5.109375 -2.234375q2.0 -2.234375 2.0 -6.71875q0 -4.4375 -1.953125 -6.609375q-1.9375 -2.1875 -5.15625 -2.1875q-3.21875 0 -5.1875 2.21875q-1.96875 2.203125 -1.96875 6.640625zm21.501953 -5.765625l2.75 0l0 -1.40625q0 -2.359375 0.5 -3.515625q0.5 -1.15625 1.84375 -1.875q1.34375 -0.734375 3.390625 -0.734375q2.109375 0 4.140625 0.625l-0.671875 3.453125q-1.171875 -0.28125 -2.265625 -0.28125q-1.078125 0 -1.546875 0.5q-0.453125 0.5 -0.453125 1.921875l0 1.3125l3.6875 0l0 3.890625l-3.6875 0l0 14.78125l-4.9375 0l0 -14.78125l-2.75 0l0 -3.890625zm11.988281 0l2.75 0l0 -1.40625q0 -2.359375 0.5 -3.515625q0.4999962 -1.15625 1.8437462 -1.875q1.34375 -0.734375 3.390625 -0.734375q2.109375 0 4.140625 0.625l-0.671875 3.453125q-1.171875 -0.28125 -2.265625 -0.28125q-1.078125 0 -1.546875 0.5q-0.453125 0.5 -0.453125 1.921875l0 1.3125l3.6875 0l0 3.890625l-3.6875 0l0 14.78125l-4.937496 0l0 -14.78125l-2.75 0l0 -3.890625z" fill-rule="nonzero"/></g></g></svg>